<svg width="18" height="22" viewBox="0 0 18 22" fill="none" xmlns="http://www.w3.org/2000/svg">
<path d="M2.8125 8.25H3.5V5.5C3.5 2.46667 5.96667 0 9 0C12.0333 0 14.5 2.46667 14.5 5.5V8.25H15.1875C16.3242 8.25 17.25 9.17484 17.25 10.3125V19.9375C17.25 21.0752 16.3242 22 15.1875 22H2.8125C1.67584 22 0.75 21.0752 0.75 19.9375V10.3125C0.75 9.17484 1.67584 8.25 2.8125 8.25ZM12.6666 5.5C12.6666 3.47778 11.0222 1.83339 9 1.83339C6.97778 1.83339 5.33339 3.47778 5.33339 5.5V8.25H12.6666V5.5Z" fill="white"/>
</svg>
