<svg width="92" height="123" viewBox="0 0 92 123" fill="none" xmlns="http://www.w3.org/2000/svg">
<mask id="mask0" mask-type="alpha" maskUnits="userSpaceOnUse" x="0" y="0" width="92" height="123">
<rect width="91.9802" height="122.237" fill="#FFF8F8"/>
</mask>
<g mask="url(#mask0)">
<path fill-rule="evenodd" clip-rule="evenodd" d="M87.4244 56.7268C86.24 50.1517 80.31 45.626 73.7992 46.0431L78.3835 71.4933C84.6307 69.6123 88.6088 63.3019 87.4244 56.7268ZM71.7759 43.2724C80.4809 41.7043 88.8088 47.49 90.3769 56.1949C91.9449 64.8999 86.1593 73.2278 77.4543 74.7959C77.0628 74.8664 76.6593 74.7785 76.3325 74.5515C76.0058 74.3245 75.7827 73.9771 75.7121 73.5855L70.5656 45.0145C70.4187 44.1992 70.9606 43.4192 71.7759 43.2724ZM34.925 14.8002C33.9317 8.35198 28.2363 3.53442 21.5604 3.7922C14.8844 4.04997 9.57752 9.29237 9.08439 15.7979L34.925 14.8002ZM21.4446 0.794429C30.2831 0.453147 37.7248 7.3415 38.0661 16.18C38.098 17.0078 37.4529 17.7048 36.6251 17.7368L7.61582 18.8569C7.21829 18.8722 6.83095 18.729 6.539 18.4588C6.24705 18.1886 6.07441 17.8134 6.05906 17.4159C5.71778 8.57739 12.6061 1.13571 21.4446 0.794429ZM-11.9453 38.6743C4.09379 18.7176 33.2741 15.5418 53.2308 31.5809C73.1875 47.62 76.3633 76.8004 60.3242 96.7571C44.2851 116.714 15.1047 119.89 -4.85197 103.85C-24.8087 87.8113 -27.9845 58.631 -11.9453 38.6743ZM51.3515 33.9193C32.6862 18.9181 5.39423 21.8884 -9.60695 40.5536C-24.6081 59.2188 -21.6378 86.5109 -2.97262 101.512C15.6926 116.513 42.9846 113.543 57.9858 94.8777C72.987 76.2125 70.0167 48.9205 51.3515 33.9193ZM52.6081 64.9798C52.6977 65.8034 52.1028 66.5437 51.2792 66.6333L31.2093 68.8176C31.0063 68.8397 30.8083 68.8202 30.6238 68.7659C30.44 69.8209 29.9943 70.8456 29.2761 71.7393C27.0119 74.5565 22.893 75.0088 20.0758 72.7446C17.2585 70.4804 16.8141 66.3606 19.0783 63.5434C21.3425 60.7262 25.4614 60.2739 28.2786 62.5382C29.4018 63.4409 30.1479 64.6386 30.4955 65.9311C30.6175 65.8829 30.748 65.8501 30.8847 65.8352L50.9546 63.6509C51.7782 63.5613 52.5185 64.1563 52.6081 64.9798ZM21.4167 65.4228C22.6449 63.8946 24.8759 63.6522 26.3993 64.8765C27.9226 66.1009 28.1659 68.3318 26.9377 69.86C25.7095 71.3882 23.4785 71.6305 21.9551 70.4062C20.4317 69.1819 20.1885 66.9509 21.4167 65.4228Z" fill="#F05933" fill-opacity="0.2"/>
</g>
</svg>
