<svg width="107" height="23" viewBox="0 0 107 23" fill="none" xmlns="http://www.w3.org/2000/svg">
<g clip-path="url(#clip0)">
<path d="M12.7986 5.84267C12.7986 7.55271 11.8765 8.60723 10.3395 8.60723C8.8305 8.60723 7.90833 7.55271 7.90833 5.84267C7.90833 4.16113 8.8305 3.10661 10.3395 3.10661C11.8765 3.10661 12.7986 4.16113 12.7986 5.84267ZM9.19378 5.84267C9.19378 6.86869 9.64089 7.46721 10.3675 7.46721C11.122 7.46721 11.5411 6.86869 11.5411 5.84267C11.5411 4.84515 11.094 4.21813 10.3675 4.21813C9.61295 4.24664 9.19378 4.84515 9.19378 5.84267ZM16.5712 3.16361C17.1859 3.16361 17.5492 3.84763 17.1859 4.36064L11.8206 11.9703C11.6808 12.1698 11.4573 12.2838 11.2337 12.2838H11.1778C10.5631 12.2838 10.2277 11.5998 10.591 11.0868L15.9843 3.47712C16.0961 3.27761 16.3197 3.16361 16.5712 3.16361ZM19.9245 9.57625C19.9245 11.2863 19.0023 12.3123 17.4654 12.3123C15.9564 12.3123 15.0342 11.2578 15.0342 9.57625C15.0342 7.89471 15.9564 6.84019 17.4654 6.84019C18.9744 6.81169 19.9245 7.86621 19.9245 9.57625ZM16.2917 9.57625C16.2917 10.6023 16.7388 11.2008 17.4654 11.2008C18.2199 11.2008 18.6391 10.6023 18.6391 9.57625C18.6391 8.55023 18.1919 7.95171 17.4654 7.95171C16.7109 7.95171 16.2917 8.55023 16.2917 9.57625Z" fill="white"/>
<path d="M23.3335 15.0483C23.3335 14.7063 23.0541 14.4498 22.7187 14.4498H18.555H7.76834L6.06372 7.43866L5.70044 5.87113L5.02977 2.62206L4.66649 0.855019H4.69443L4.6106 0.541512C4.52676 0.199504 4.21937 0 3.85609 0H0.810128C0.474792 0 0.139457 0.285006 0.0276781 0.598513C-0.13999 1.14002 0.251235 1.71004 0.782183 1.71004H3.26926L6.98589 18.0409C5.97989 18.4399 5.30921 19.4374 5.42099 20.6344C5.53277 21.8885 6.59467 22.943 7.82423 23C9.24941 23.057 10.4231 21.803 10.4231 20.3779C10.4231 20.0359 10.3672 19.3804 10.2275 19.3804H15.6208C15.509 19.3804 15.4252 20.0644 15.4252 20.4064C15.4252 21.974 16.8224 23.171 18.4152 22.886C19.5889 22.6865 20.4552 21.632 20.4552 20.4064C20.4552 20.0359 20.3714 19.7509 20.2596 19.4374C20.5949 19.3519 20.8464 18.8959 20.8464 18.5539C20.8464 18.1549 20.5111 17.6704 20.1199 17.6704H8.52285L8.07573 15.6753H20.6788H22.7187C23.0541 15.6753 23.3335 15.3903 23.3335 15.0483ZM18.1637 19.4659C18.4991 19.5514 18.7785 19.8364 18.8624 20.1784C19.03 20.9195 18.4152 21.5465 17.6887 21.3755C17.3534 21.29 17.0739 21.005 16.9901 20.6629C16.8224 19.9504 17.4372 19.2949 18.1637 19.4659ZM8.83024 20.6629C8.7464 21.005 8.46696 21.29 8.13162 21.3755C7.40506 21.5465 6.79028 20.9195 6.95795 20.1784C7.04178 19.8364 7.32123 19.5514 7.65656 19.4659C8.38312 19.2949 8.99791 19.9504 8.83024 20.6629Z" fill="white"/>
<path d="M32.2481 6.07068C32.9747 6.07068 33.5615 5.78568 34.0086 5.18716L34.9587 6.18469C34.2042 7.0397 33.3379 7.46721 32.304 7.46721C31.298 7.46721 30.4596 7.15371 29.789 6.49819C29.1462 5.84268 28.8109 5.01616 28.8109 4.01864C28.8109 3.02112 29.1462 2.1946 29.8169 1.53908C30.4876 0.88357 31.298 0.541562 32.276 0.541562C33.3659 0.541562 34.2601 0.969071 34.9867 1.79559L34.0924 2.85011C33.6174 2.2516 33.0585 1.96659 32.3599 1.96659C31.801 1.96659 31.3259 2.1376 30.9347 2.50811C30.5435 2.87861 30.3479 3.36312 30.3479 3.99014C30.3479 4.61715 30.5435 5.13016 30.9068 5.50067C31.27 5.89968 31.7451 6.07068 32.2481 6.07068Z" fill="white"/>
<path d="M41.0507 4.81664C41.0507 5.55766 40.7992 6.18467 40.2962 6.69768C39.7932 7.21069 39.1504 7.4672 38.368 7.4672C37.5855 7.4672 36.9708 7.21069 36.4398 6.69768C35.9368 6.18467 35.6853 5.55766 35.6853 4.81664C35.6853 4.07562 35.9368 3.44861 36.4398 2.9071C36.9428 2.36559 37.5855 2.13758 38.368 2.13758C39.1504 2.13758 39.7652 2.39409 40.2962 2.9071C40.8271 3.42011 41.0507 4.07562 41.0507 4.81664ZM37.1105 4.81664C37.1105 5.24415 37.2223 5.58616 37.4738 5.84266C37.6973 6.09917 38.0047 6.24167 38.368 6.24167C38.7313 6.24167 39.0387 6.09917 39.2622 5.84266C39.4858 5.58616 39.6255 5.24415 39.6255 4.81664C39.6255 4.38913 39.5137 4.04712 39.2622 3.79062C39.0107 3.53411 38.7313 3.39161 38.368 3.39161C38.0047 3.39161 37.6973 3.53411 37.4738 3.79062C37.2502 4.04712 37.1105 4.38913 37.1105 4.81664Z" fill="white"/>
<path d="M43.5098 4.53163V7.4102H42.0846V2.22308H43.5098V2.7931C43.9289 2.33709 44.404 2.13758 44.9629 2.13758C45.4938 2.13758 45.941 2.33709 46.3042 2.70759C46.6675 3.0781 46.8352 3.59111 46.8352 4.24663V7.3817H45.41V4.47463C45.41 3.67661 45.1306 3.27761 44.5437 3.27761C44.2643 3.27761 44.0128 3.39161 43.8172 3.59111C43.6216 3.81912 43.5098 4.10412 43.5098 4.53163Z" fill="white"/>
<path d="M49.4899 7.41021L47.4779 2.2231H48.959L50.2165 5.47217L51.474 2.2231H52.9551L50.943 7.41021H49.4899Z" fill="white"/>
<path d="M58.041 6.64068C57.4821 7.18219 56.8115 7.4672 56.029 7.4672C55.2466 7.4672 54.6318 7.23919 54.1288 6.75468C53.6258 6.27017 53.3743 5.61466 53.3743 4.81664C53.3743 3.99012 53.6258 3.36311 54.1288 2.8786C54.6318 2.39409 55.2466 2.16608 55.9452 2.16608C56.6438 2.16608 57.2306 2.39409 57.7336 2.8216C58.2087 3.2491 58.4602 3.84762 58.4602 4.58863V5.35815H54.7715C54.8274 5.64316 54.9671 5.87116 55.2186 6.04216C55.4701 6.21317 55.7496 6.29867 56.057 6.29867C56.56 6.29867 56.9512 6.12767 57.2865 5.78566L58.041 6.64068ZM56.6717 3.59111C56.4761 3.42011 56.2526 3.33461 55.9731 3.33461C55.6937 3.33461 55.4422 3.42011 55.2186 3.59111C54.9951 3.76212 54.8553 3.99012 54.8274 4.30363H57.063C56.9791 3.99012 56.8673 3.76212 56.6717 3.59111Z" fill="white"/>
<path d="M62.1209 3.50561C61.7018 3.50561 61.3944 3.64811 61.1708 3.96162C60.9752 4.27513 60.8634 4.67414 60.8634 5.15865V7.4102H59.4382V2.22308H60.8634V2.9071C61.059 2.70759 61.2826 2.50809 61.5341 2.36559C61.8135 2.22308 62.093 2.13758 62.3724 2.13758V3.50561H62.1209Z" fill="white"/>
<path d="M67.1509 5.78566C67.1509 6.29867 66.9553 6.69768 66.592 7.01119C66.2287 7.32469 65.7537 7.4672 65.1948 7.4672C64.8315 7.4672 64.4123 7.4102 64.0211 7.26769C63.6019 7.12519 63.2387 6.92569 62.9313 6.66918L63.5461 5.75716C64.077 6.18467 64.6359 6.38417 65.2227 6.38417C65.4183 6.38417 65.5581 6.35567 65.6699 6.27017C65.7816 6.18467 65.8375 6.09917 65.8375 5.98517C65.8375 5.87116 65.7537 5.75716 65.614 5.64316C65.4742 5.52916 65.2507 5.44365 64.9712 5.35815C64.6918 5.27265 64.4682 5.18715 64.3285 5.13015C64.1888 5.07315 64.0211 4.95914 63.8255 4.84514C63.4343 4.58863 63.2387 4.24663 63.2387 3.76212C63.2387 3.27761 63.4343 2.9071 63.7976 2.59359C64.1608 2.28008 64.6638 2.13758 65.2507 2.13758C65.8375 2.13758 66.4523 2.33709 67.0391 2.76459L66.5082 3.73362C66.0611 3.42011 65.6419 3.27761 65.1948 3.27761C64.7477 3.27761 64.5521 3.39161 64.5521 3.64811C64.5521 3.79062 64.608 3.87612 64.7477 3.96162C64.8874 4.04712 65.111 4.13262 65.4463 4.21813C65.7537 4.33213 66.0052 4.38913 66.117 4.44613C66.2567 4.50313 66.4244 4.58863 66.592 4.70264C66.9832 4.93064 67.1509 5.27265 67.1509 5.78566Z" fill="white"/>
<path d="M68.3526 1.56757C68.1849 1.39656 68.1011 1.19706 68.1011 0.969052C68.1011 0.741047 68.1849 0.541543 68.3526 0.370539C68.5202 0.199536 68.7159 0.114034 68.9394 0.114034C69.163 0.114034 69.3586 0.199536 69.5263 0.370539C69.6939 0.541543 69.7778 0.741047 69.7778 0.969052C69.7778 1.19706 69.6939 1.39656 69.5263 1.56757C69.3586 1.73857 69.163 1.82407 68.9394 1.82407C68.7159 1.82407 68.5202 1.73857 68.3526 1.56757ZM69.638 7.41019H68.2129V2.22308H69.638V7.41019Z" fill="white"/>
<path d="M76.0653 4.81664C76.0653 5.55766 75.8138 6.18467 75.3108 6.69768C74.8078 7.21069 74.1651 7.4672 73.3826 7.4672C72.6002 7.4672 71.9854 7.21069 71.4545 6.69768C70.9515 6.18467 70.7 5.55766 70.7 4.81664C70.7 4.07562 70.9515 3.44861 71.4545 2.9071C71.9575 2.39409 72.6002 2.13758 73.3826 2.13758C74.1651 2.13758 74.7799 2.39409 75.3108 2.9071C75.8418 3.42011 76.0653 4.07562 76.0653 4.81664ZM72.1251 4.81664C72.1251 5.24415 72.2369 5.58616 72.4884 5.84266C72.712 6.09917 73.0194 6.24167 73.3826 6.24167C73.7459 6.24167 74.0533 6.09917 74.2769 5.84266C74.5004 5.58616 74.6401 5.24415 74.6401 4.81664C74.6401 4.38913 74.5284 4.04712 74.2769 3.79062C74.0254 3.53411 73.7459 3.39161 73.3826 3.39161C73.0194 3.39161 72.712 3.53411 72.4884 3.79062C72.2648 4.04712 72.1251 4.38913 72.1251 4.81664Z" fill="white"/>
<path d="M78.5244 4.53163V7.4102H77.0992V2.22308H78.5244V2.7931C78.9436 2.33709 79.4187 2.13758 79.9775 2.13758C80.5364 2.13758 80.9556 2.33709 81.3189 2.70759C81.6822 3.0781 81.8498 3.59111 81.8498 4.24663V7.3817H80.4247V4.47463C80.4247 3.67661 80.1452 3.27761 79.5584 3.27761C79.2789 3.27761 79.0274 3.39161 78.8318 3.59111C78.6083 3.81912 78.5244 4.10412 78.5244 4.53163Z" fill="white"/>
<path d="M91.0995 2.9071C91.0995 3.99012 90.6803 4.67414 89.842 4.98765L91.5187 7.3817H89.7023L88.2492 5.24415H87.2432V7.4102H85.7621V0.684052H88.2492C89.2831 0.684052 90.0097 0.855055 90.4288 1.22556C90.876 1.56757 91.0995 2.13758 91.0995 2.9071ZM89.3111 3.70512C89.5067 3.53411 89.5905 3.27761 89.5905 2.9071C89.5905 2.53659 89.5067 2.30859 89.3111 2.16608C89.1154 2.02358 88.7801 1.96658 88.333 1.96658H87.2432V3.96162H88.305C88.8081 3.96162 89.1434 3.87612 89.3111 3.70512Z" fill="white"/>
<path d="M96.7723 7.4102H95.4309V6.78318C95.0676 7.23919 94.6205 7.4957 94.0896 7.4957C93.5586 7.4957 93.1115 7.3247 92.7482 7.01119C92.3849 6.69768 92.1893 6.27017 92.1893 5.75716C92.1893 5.21565 92.3849 4.84514 92.7482 4.56013C93.1115 4.30363 93.6425 4.16113 94.2852 4.16113H95.3471V4.13263C95.3471 3.59111 95.0676 3.30611 94.4808 3.30611C94.2293 3.30611 93.9778 3.36311 93.6983 3.44861C93.4189 3.53411 93.1953 3.67661 92.9997 3.81912L92.357 2.8786C93.0277 2.39409 93.7822 2.13758 94.6485 2.13758C95.2632 2.13758 95.7663 2.30859 96.1575 2.62209C96.5487 2.9356 96.7443 3.42011 96.7443 4.10412V7.4102H96.7723ZM95.3471 5.44365V5.18715H94.4529C93.894 5.18715 93.6145 5.35815 93.6145 5.72866C93.6145 5.92816 93.6704 6.07067 93.8101 6.15617C93.9499 6.24167 94.1455 6.29867 94.397 6.29867C94.6485 6.29867 94.872 6.21317 95.0676 6.07067C95.2353 5.89966 95.3471 5.70016 95.3471 5.44365Z" fill="white"/>
<path d="M99.7344 3.27761V5.58616C99.7344 5.78566 99.7903 5.92817 99.8742 6.04217C99.9859 6.15617 100.098 6.21317 100.237 6.21317C100.489 6.21317 100.712 6.09917 100.908 5.84266L101.439 6.84019C100.992 7.23919 100.545 7.4672 100.042 7.4672C99.5668 7.4672 99.1476 7.2962 98.8123 6.98269C98.4769 6.66918 98.3092 6.21317 98.3092 5.64316V3.24911H97.7224V2.22309H98.3092V0.684052H99.7344V2.22309H100.964V3.24911H99.7344V3.27761Z" fill="white"/>
<path d="M106.581 6.64068C106.022 7.18219 105.351 7.4672 104.569 7.4672C103.786 7.4672 103.172 7.23919 102.669 6.75468C102.166 6.27017 101.914 5.61466 101.914 4.81664C101.914 3.99012 102.166 3.36311 102.669 2.8786C103.172 2.39409 103.786 2.16608 104.485 2.16608C105.184 2.16608 105.77 2.39409 106.273 2.8216C106.748 3.2491 107 3.84762 107 4.58863V5.35815H103.311C103.367 5.64316 103.507 5.87116 103.758 6.04216C104.01 6.21317 104.289 6.29867 104.597 6.29867C105.1 6.29867 105.491 6.12767 105.826 5.78566L106.581 6.64068ZM105.239 3.59111C105.044 3.42011 104.82 3.33461 104.541 3.33461C104.261 3.33461 104.01 3.42011 103.786 3.59111C103.563 3.76212 103.423 3.99012 103.367 4.30363H105.603C105.547 3.99012 105.435 3.76212 105.239 3.59111Z" fill="white"/>
<path d="M33.4777 11.3718L33.1703 12.0843C32.5834 11.6853 31.8848 11.5143 31.3539 11.5143C30.5155 11.5143 29.9566 11.8278 29.9566 12.3978C29.9566 14.1363 33.6733 13.2243 33.6453 15.6753C33.6453 16.7869 32.6673 17.5279 31.27 17.5279C30.3199 17.5279 29.3698 17.1004 28.755 16.5019L29.0903 15.8178C29.7051 16.4164 30.5435 16.7584 31.298 16.7584C32.2481 16.7584 32.8349 16.3594 32.8349 15.7323C32.8349 13.9653 29.1462 14.9058 29.1462 12.4833C29.1462 11.4288 30.0684 10.7447 31.4377 10.7447C32.1363 10.7447 32.9188 11.0012 33.4777 11.3718Z" fill="white"/>
<path d="M37.6414 17.1574C37.3061 17.3854 36.9148 17.5279 36.5236 17.5279C35.7971 17.5279 35.2661 17.0719 35.2661 16.0744V13.2243H34.5396V12.6258H35.2661V11.2863H35.9927V12.6258H37.5576V13.2528H35.9927V15.9604C35.9927 16.5874 36.2162 16.8154 36.6633 16.8154C36.9148 16.8154 37.1943 16.7299 37.4458 16.5589L37.6414 17.1574Z" fill="white"/>
<path d="M43.2024 14.9629C43.2024 16.4734 42.1684 17.5279 40.6874 17.5279C39.2063 17.5279 38.1724 16.4734 38.1724 14.9629C38.1724 13.4524 39.2063 12.4263 40.6874 12.4263C42.1684 12.4263 43.2024 13.4524 43.2024 14.9629ZM38.8989 14.9914C38.8989 16.1029 39.6534 16.8724 40.6874 16.8724C41.7213 16.8724 42.4758 16.1029 42.4758 14.9914C42.4758 13.8799 41.7213 13.1103 40.6874 13.1103C39.6534 13.1103 38.8989 13.8799 38.8989 14.9914Z" fill="white"/>
<path d="M45.2423 13.5664C45.5776 12.8253 46.1924 12.4263 47.0308 12.4263V13.1958C45.9968 13.1673 45.3261 13.8514 45.2423 14.8489V17.5279H44.5157V12.4548H45.2423V13.5664Z" fill="white"/>
<path d="M52.2844 15.2764H48.2324C48.3721 16.2739 49.0708 16.9009 50.0209 16.9009C50.6357 16.9009 51.1666 16.6729 51.5578 16.2739L51.9491 16.7299C51.474 17.2714 50.7754 17.5849 49.965 17.5849C48.5119 17.5849 47.5059 16.5304 47.5059 15.0199C47.5059 13.5094 48.5119 12.4548 49.965 12.4548C51.5578 12.4263 52.3403 13.5379 52.2844 15.2764ZM51.6137 14.6494C51.5578 13.6804 50.9151 13.0534 49.965 13.0534C49.0149 13.0534 48.3442 13.6804 48.2324 14.6494H51.6137Z" fill="white"/>
</g>
<defs>
<clipPath id="clip0">
<rect width="107" height="23" fill="white"/>
</clipPath>
</defs>
</svg>
